<?xml version="1.0" encoding="utf-8"?>
<svg viewBox="0 0 64 64" width="64" height="64" xmlns="http://www.w3.org/2000/svg">
  <rect width="64" height="64" style="fill: rgb(197, 88, 222);"/>
  <path d="M 13.636 51.395 C 10.978 51.395 8.89 50.557 7.371 48.88 C 5.852 47.203 5.093 44.608 5.093 41.096 L 5.093 30.868 L 2.34 30.109 L 2.34 25.221 L 13.423 25.221 L 13.423 41.144 C 13.423 42.409 13.688 43.37 14.218 44.027 C 14.748 44.684 15.543 45.012 16.602 45.012 C 17.219 45.012 17.833 44.897 18.442 44.668 C 19.051 44.439 19.592 44.094 20.067 43.635 L 20.067 30.868 L 17.267 30.109 L 17.267 25.221 L 28.397 25.221 L 28.397 37.588 L 25.605 50.897 L 21.159 50.897 L 20.613 47.978 C 19.79 49.085 18.79 49.932 17.611 50.517 C 16.432 51.102 15.107 51.395 13.636 51.395 Z"/>
  <path d="M 64 0 L 64 64 L 22.856 64 L 36.282 0 L 64 0 Z"/>
  <path d="M 28.397 45.273 L 31.6 46.032 L 31.6 50.897 L 25.605 50.897 L 28.397 37.588 Z M 41.85 50.897 L 34.945 30.584 L 32.097 30.109 L 32.097 25.221 L 45.599 25.221 L 45.599 30.085 L 43.298 30.56 L 46.027 40.361 L 46.549 42.307 L 46.691 42.307 L 47.332 40.361 L 50.915 30.584 L 47.949 30.085 L 47.949 25.221 L 61.428 25.221 L 61.428 30.109 L 58.485 30.679 L 50.702 50.897 Z" style="fill: rgb(255, 255, 255);"/>
</svg>